<?xml version="1.0" encoding="UTF-8" standalone="no"?>
<svg
   width="320pt"
   height="200pt"
   viewBox="0 0 320 200"
   version="1.1"
   id="svg37"
   sodipodi:docname="Julia-R.svg"
   xml:space="preserve"
   inkscape:version="1.2.1 (9c6d41e410, 2022-07-14)"
   xmlns:inkscape="http://www.inkscape.org/namespaces/inkscape"
   xmlns:sodipodi="http://sodipodi.sourceforge.net/DTD/sodipodi-0.dtd"
   xmlns="http://www.w3.org/2000/svg"
   xmlns:svg="http://www.w3.org/2000/svg"><defs
     id="defs41"><linearGradient
       id="gradientFill-1"
       x1="0.74144253"
       x2="590.86259"
       y1="3.6658269"
       y2="593.78698"
       gradientUnits="userSpaceOnUse"
       spreadMethod="pad"
       gradientTransform="scale(1.2219423,0.81836924)"><stop
         offset="0"
         stop-color="rgb(203,206,208)"
         stop-opacity="1"
         id="stop339" /><stop
         offset="1"
         stop-color="rgb(132,131,139)"
         stop-opacity="1"
         id="stop341" /></linearGradient><linearGradient
       id="gradientFill-2"
       x1="0"
       x2="1"
       y1="0"
       y2="1"
       gradientUnits="objectBoundingBox"
       spreadMethod="pad"><stop
         offset="0"
         stop-color="rgb(39,109,195)"
         stop-opacity="1"
         id="stop344" /><stop
         offset="1"
         stop-color="rgb(22,92,170)"
         stop-opacity="1"
         id="stop346" /></linearGradient></defs><sodipodi:namedview
     id="namedview39"
     pagecolor="#505050"
     bordercolor="#eeeeee"
     borderopacity="1"
     inkscape:showpageshadow="0"
     inkscape:pageopacity="0"
     inkscape:pagecheckerboard="0"
     inkscape:deskcolor="#505050"
     inkscape:document-units="pt"
     showgrid="false"
     inkscape:zoom="1.46625"
     inkscape:cx="203.58056"
     inkscape:cy="223.69991"
     inkscape:window-width="1618"
     inkscape:window-height="1027"
     inkscape:window-x="54"
     inkscape:window-y="-8"
     inkscape:window-maximized="1"
     inkscape:current-layer="svg37" /><g
     id="g367"
     transform="matrix(0.75,0,0,0.75,-123.70048,-115.28671)" /><g
     id="g510"
     transform="matrix(0.48002937,0,0,0.48002937,83.008146,54.35547)"><path
       d="M 361.453,485.937 C 162.329,485.937 0.906,377.828 0.906,244.469 0.906,111.109 162.329,3 361.453,3 560.578,3 722,111.109 722,244.469 722,377.828 560.578,485.937 361.453,485.937 Z M 416.641,97.406 c -151.352,0 -274.047,73.908 -274.047,165.078 0,91.17 122.695,165.078 274.047,165.078 151.351,0 263.046,-50.529 263.046,-165.078 0,-114.513 -111.695,-165.078 -263.046,-165.078 z"
       fill="url(#gradientFill-1)"
       fill-rule="evenodd"
       id="path351"
       transform="matrix(0.75,0,0,0.75,-123.70048,-115.28671)"
       style="fill:url(#gradientFill-1)" /><g
       id="g371"
       transform="matrix(1.8740448,0,0,1.8740448,76.721161,-71.194506)"><path
         style="fill:#000000;fill-opacity:1;fill-rule:nonzero;stroke:none"
         d="m 67.871094,164.3125 c 0,7.53516 -0.847656,13.62109 -2.542969,18.25391 -1.695313,4.63671 -4.105469,8.23437 -7.234375,10.79687 -3.125,2.5625 -6.875,4.27734 -11.246094,5.14453 -4.371094,0.86328 -9.234375,1.29688 -14.582031,1.29688 -7.238281,0 -12.777344,-1.12891 -16.617187,-3.39063 -3.84375,-2.26172 -5.765626,-4.97265 -5.765626,-8.14062 0,-2.63672 1.070313,-4.85938 3.21875,-6.66797 2.148438,-1.8086 5.03125,-2.71094 8.648438,-2.71094 2.714844,0 4.882812,0.73438 6.5,2.20313 1.621094,1.46875 2.960938,2.92187 4.015625,4.35156 1.203125,1.58203 2.222656,2.63672 3.050781,3.16406 0.828125,0.52734 1.582032,0.79297 2.261719,0.79297 1.429687,0 2.523437,-0.84766 3.277344,-2.54297 0.753906,-1.69531 1.128906,-4.99219 1.128906,-9.89062 V 84.050781 L 67.871094,76.929688 V 164.3125 m 11.09375,-25.09766 V 79.414062"
         id="path26"
         sodipodi:nodetypes="ccccscsssccssssccccc" /><path
         style="fill:#3f61d7;fill-opacity:1;fill-rule:nonzero;stroke:none"
         d="m 72.953125,55.089844 c 0,9.667968 -7.835937,17.5 -17.5,17.5 -9.664063,0 -17.5,-7.832032 -17.5,-17.5 0,-9.664063 7.835937,-17.5 17.5,-17.5 9.664063,0 17.5,7.835937 17.5,17.5"
         id="path30" /></g></g></svg>
