<?xml version="1.0" encoding="UTF-8" standalone="no"?>
<svg
   width="320pt"
   height="200pt"
   viewBox="0 0 320 200"
   version="1.1"
   id="svg545"
   sodipodi:docname="R-Julia.svg"
   xml:space="preserve"
   inkscape:export-filename="R-Julia.png"
   inkscape:export-xdpi="96"
   inkscape:export-ydpi="96"
   inkscape:version="1.2.1 (9c6d41e410, 2022-07-14)"
   xmlns:inkscape="http://www.inkscape.org/namespaces/inkscape"
   xmlns:sodipodi="http://sodipodi.sourceforge.net/DTD/sodipodi-0.dtd"
   xmlns="http://www.w3.org/2000/svg"
   xmlns:svg="http://www.w3.org/2000/svg"><defs
     id="defs549"><linearGradient
       id="gradientFill-1"
       x1="0"
       x2="1"
       y1="0"
       y2="1"
       gradientUnits="objectBoundingBox"
       spreadMethod="pad"><stop
         offset="0"
         stop-color="rgb(203,206,208)"
         stop-opacity="1"
         id="stop571" /><stop
         offset="1"
         stop-color="rgb(132,131,139)"
         stop-opacity="1"
         id="stop573" /></linearGradient><linearGradient
       id="gradientFill-2"
       x1="301.02603"
       x2="703.06751"
       y1="151.40061"
       y2="553.44209"
       gradientUnits="userSpaceOnUse"
       spreadMethod="pad"
       gradientTransform="matrix(0.51947757,0,0,0.53008119,330.77219,265.69277)"><stop
         offset="0"
         stop-color="rgb(39,109,195)"
         stop-opacity="1"
         id="stop576" /><stop
         offset="1"
         stop-color="rgb(22,92,170)"
         stop-opacity="1"
         id="stop578" /></linearGradient></defs><sodipodi:namedview
     id="namedview547"
     pagecolor="#505050"
     bordercolor="#eeeeee"
     borderopacity="1"
     inkscape:showpageshadow="0"
     inkscape:pageopacity="0"
     inkscape:pagecheckerboard="0"
     inkscape:deskcolor="#505050"
     inkscape:document-units="pt"
     showgrid="false"
     inkscape:zoom="1.3029631"
     inkscape:cx="104.37748"
     inkscape:cy="56.026147"
     inkscape:window-width="1618"
     inkscape:window-height="1027"
     inkscape:window-x="54"
     inkscape:window-y="-8"
     inkscape:window-maximized="1"
     inkscape:current-layer="surface61" /><g
     id="surface61"><path
       style="fill:#3f61d7;fill-opacity:1;fill-rule:nonzero;stroke:none;stroke-width:0.985807"
       d="m 158.91476,16.341419 c 0,9.53075 -7.72473,17.251621 -17.25163,17.251621 -9.52689,0 -17.25162,-7.720871 -17.25162,-17.251621 0,-9.5268992 7.72473,-17.25162003 17.25162,-17.25162003 9.5269,0 17.25163,7.72472083 17.25163,17.25162003"
       id="path538" /><g
       id="g599"
       transform="matrix(0.73935518,0,0,0.73935518,-278.32895,-214.35504)"><path
         d="m 619.38612,463.52449 c 0,0 11.45115,3.4555 18.10397,6.82179 2.30838,1.1681 6.30227,3.49905 9.18317,6.5594 2.82212,2.99739 4.19802,6.03466 4.19802,6.03466 L 696,559.02947 623.05939,559.062 588.95047,495.00965 c 0,0 -6.98446,-12.00057 -11.28218,-15.4802 -3.58511,-2.90241 -5.11371,-3.93565 -8.65842,-3.93565 h -17.33048 l 0.0136,83.42202 -64.54457,0.0273 V 345.94738 h 129.61389 c 0,0 59.03467,1.06472 59.03467,57.23056 0,56.16585 -56.41091,60.34655 -56.41091,60.34655 z"
         fill="url(#gradientFill-2)"
         fill-rule="evenodd"
         id="path585"
         style="fill:url(#gradientFill-2);stroke-width:0.524753"
         sodipodi:nodetypes="csccccccscccccscc" /></g><path
       style="fill:#ca3a33;fill-opacity:1;fill-rule:nonzero;stroke:none;stroke-width:0.938736"
       d="m 137.8606,103.2694 c 0,9.07568 -7.35589,16.42789 -16.42789,16.42789 -9.07566,0 -16.42787,-7.35221 -16.42787,-16.42789 0,-9.072001 7.35221,-16.427885 16.42787,-16.427885 9.072,0 16.42789,7.355884 16.42789,16.427885"
       id="path536" /><path
       style="fill:#9457b0;fill-opacity:1;fill-rule:nonzero;stroke:none;stroke-width:0.938736"
       d="m 177.33151,103.2694 c 0,9.07568 -7.35587,16.42789 -16.42789,16.42789 -9.072,0 -16.42787,-7.35221 -16.42787,-16.42789 0,-9.072001 7.35587,-16.427885 16.42787,-16.427885 9.07202,0 16.42789,7.355884 16.42789,16.427885"
       id="path540" /><path
       style="fill:#389723;fill-opacity:1;fill-rule:nonzero;stroke:none;stroke-width:0.938736"
       d="m 157.59973,69.082534 c 0,9.072 -7.3559,16.427875 -16.42789,16.427875 -9.07567,0 -16.42787,-7.355875 -16.42787,-16.427875 0,-9.072005 7.3522,-16.42788 16.42787,-16.42788 9.07199,0 16.42789,7.355875 16.42789,16.42788"
       id="path542" /></g></svg>
