<?xml version="1.0" encoding="UTF-8" standalone="no"?>
<svg
   width="382.23"
   height="70.7"
   version="1.1"
   id="svg916"
   sodipodi:docname="logo.svg"
   inkscape:version="1.1 (c68e22c387, 2021-05-23)"
   xmlns:inkscape="http://www.inkscape.org/namespaces/inkscape"
   xmlns:sodipodi="http://sodipodi.sourceforge.net/DTD/sodipodi-0.dtd"
   xmlns="http://www.w3.org/2000/svg"
   xmlns:svg="http://www.w3.org/2000/svg">
  <sodipodi:namedview
     id="namedview918"
     pagecolor="#ffffff"
     bordercolor="#666666"
     borderopacity="1.0"
     inkscape:pageshadow="2"
     inkscape:pageopacity="0.0"
     inkscape:pagecheckerboard="0"
     showgrid="false"
     inkscape:zoom="1.9857153"
     inkscape:cx="191.11501"
     inkscape:cy="35.503578"
     inkscape:window-width="1366"
     inkscape:window-height="697"
     inkscape:window-x="-8"
     inkscape:window-y="-8"
     inkscape:window-maximized="1"
     inkscape:current-layer="svg916" />
  <defs
     id="defs900">
    <rect
       x="95.683402"
       y="14.604309"
       width="176.7625"
       height="37.769764"
       id="rect23649" />
    <linearGradient
       id="a"
       x1="11.67"
       y1="73.36"
       x2="70.61"
       y2="44.72"
       gradientTransform="matrix(1 0 0 -1 0 73.4)"
       gradientUnits="userSpaceOnUse">
      <stop
         offset=".1"
         stop-color="#76b3e1"
         id="stop872" />
      <stop
         offset=".3"
         stop-color="#dcf2fd"
         id="stop874" />
      <stop
         offset="1"
         stop-color="#76b3e1"
         id="stop876" />
    </linearGradient>
    <linearGradient
       id="b"
       x1="44"
       y1="59.33"
       x2="33.68"
       y2="24.96"
       gradientTransform="matrix(1 0 0 -1 0 73.4)"
       gradientUnits="userSpaceOnUse">
      <stop
         offset="0"
         stop-color="#76b3e1"
         id="stop879" />
      <stop
         offset=".5"
         stop-color="#4377bb"
         id="stop881" />
      <stop
         offset="1"
         stop-color="#1f3b77"
         id="stop883" />
    </linearGradient>
    <linearGradient
       id="c"
       x1="7.34"
       y1="44.34"
       x2="66.94"
       y2="3.82"
       gradientTransform="matrix(1 0 0 -1 0 73.4)"
       gradientUnits="userSpaceOnUse">
      <stop
         offset="0"
         stop-color="#315aa9"
         id="stop886" />
      <stop
         offset=".5"
         stop-color="#518ac8"
         id="stop888" />
      <stop
         offset="1"
         stop-color="#315aa9"
         id="stop890" />
    </linearGradient>
    <linearGradient
       id="d"
       x1="34.25"
       y1="39.49"
       x2="10.2"
       y2="-48.7"
       gradientTransform="matrix(1 0 0 -1 0 73.4)"
       gradientUnits="userSpaceOnUse">
      <stop
         offset="0"
         stop-color="#4377bb"
         id="stop893" />
      <stop
         offset=".5"
         stop-color="#1a336b"
         id="stop895" />
      <stop
         offset="1"
         stop-color="#1a336b"
         id="stop897" />
    </linearGradient>
  </defs>
  <path
     d="M75.81 15.35S50.86-3.49 31.5.91l-1.7.47A12.35 12.35 0 0 0 23.22 6a11.18 11.18 0 0 0-.71 1.18l-7.15 12.15 12.35 2.41a22 22 0 0 0 17.61 3.46l22 4.3Z"
     style="fill:#76b3e1"
     id="path902" />
  <path
     d="M75.81 15.35S50.86-3.49 31.5.91l-1.7.47A12.35 12.35 0 0 0 23.22 6a11.18 11.18 0 0 0-.71 1.18l-7.15 12.15 12.35 2.41a22 22 0 0 0 17.61 3.46l22 4.3Z"
     style="fill:url(#a);isolation:isolate;opacity:.3"
     id="path904" />
  <path
     d="m23 15.11-1.71.48c-7.9 2.55-10.6 9.94-6.06 16.42a21.12 21.12 0 0 0 22.54 7.1l29.52-9.61S42.39 10.71 23 15.11Z"
     style="fill:#518ac8"
     id="path906" />
  <path
     d="m23 15.11-1.71.48c-7.9 2.55-10.6 9.94-6.06 16.42a21.12 21.12 0 0 0 22.54 7.1l29.52-9.61S42.39 10.71 23 15.11Z"
     style="fill:url(#b);isolation:isolate;opacity:.3"
     id="path908" />
  <path
     d="M61.89 36.42a21.11 21.11 0 0 0-22.58-7.15L9.82 38.83.54 55.35l52.83 9 9.47-16.85c1.89-3.23 1.7-7.3-.95-11.08Z"
     style="fill:url(#c)"
     id="path910" />
  <path
     d="M52.61 52.94a21.14 21.14 0 0 0-22.53-7.15L.54 55.35s25 18.84 44.31 14.44l1.7-.47c7.91-2.51 10.61-9.9 6.06-16.38Z"
     style="fill:url(#d)"
     id="path912" />
  <path
     id="path914"
     style="fill:#58595b"
     d="M 338.85938 20 A 11.11 11.11 0 0 0 331.41016 22.599609 A 8.11 8.11 0 0 0 328.32031 29.150391 A 7.5 7.5 0 0 0 330.64062 34.759766 C 332.02729 36.159766 334.4831 37.389219 338.00977 38.449219 A 16.51 16.51 0 0 1 342.5293 40.269531 A 2.33 2.33 0 0 1 343.7207 42.359375 A 2.74 2.74 0 0 1 342.42969 44.669922 A 5.64 5.64 0 0 1 339.13086 45.580078 A 7 7 0 0 1 332.5293 41.349609 L 327.13086 44.140625 A 10.85 10.85 0 0 0 331.61914 49.369141 A 13.74 13.74 0 0 0 338.93945 51.269531 C 342.40945 51.269531 345.13008 50.409687 347.08008 48.679688 A 8.61 8.61 0 0 0 350 41.890625 A 7.09 7.09 0 0 0 347.5 36.220703 C 345.82 34.780703 343.12969 33.540469 339.42969 32.480469 A 11.76 11.76 0 0 1 335.66992 30.910156 A 2.57 2.57 0 0 1 334.57031 28.759766 A 2.7 2.7 0 0 1 335.66992 26.509766 A 4.6 4.6 0 0 1 338.58008 25.660156 A 5.67 5.67 0 0 1 344.28906 29.380859 L 349.46094 26.550781 A 10.05 10.05 0 0 0 345.39062 21.710938 A 12.17 12.17 0 0 0 338.85938 20 z M 305.15039 20.470703 L 305.15039 41.119141 A 4.2 4.2 0 0 1 304.15039 44.119141 A 3.61 3.61 0 0 1 301.38086 45.189453 C 299.42086 45.189453 297.98984 44.040234 297.08984 41.740234 L 291.80078 44.689453 C 293.52745 49.029453 296.7538 51.199219 301.48047 51.199219 A 10.27 10.27 0 0 0 308.53906 48.679688 A 9 9 0 0 0 311.40039 41.580078 L 311.40039 20.470703 L 305.15039 20.470703 z " />
  <text
     xml:space="preserve"
     id="text23647"
     style="font-size:12px;line-height:1.25;font-family:'Agency FB';-inkscape-font-specification:'Agency FB';text-align:center;white-space:pre;shape-inside:url(#rect23649)"
     transform="matrix(3.336539,0,0,3.336539,-438.44249,-34.902554)"><tspan
       x="152.98453"
       y="25.81396"
       id="tspan34650"><tspan
         style="font-family:Gordita;-inkscape-font-specification:Gordita;fill:#58595b"
         id="tspan34648">S V E L T E</tspan></tspan></text>
</svg>
